<svg xmlns="http://www.w3.org/2000/svg" viewBox="0 0 64 64"><defs><linearGradient id="b" x1="0%" y1="0%" x2="0%" y2="100%"><stop offset="0%" style="stop-color:#d4eeff"/><stop offset="100%" style="stop-color:#a8d8f0"/></linearGradient><linearGradient id="a" x1="0%" y1="0%" x2="100%" y2="100%"><stop offset="0%" style="stop-color:#c8d4f0"/><stop offset="100%" style="stop-color:#f0c8d8"/></linearGradient></defs><circle cx="32" cy="32" r="30" fill="none" stroke="url(#a)" stroke-width="3"/><circle cx="32" cy="32" r="27" fill="url(#b)"/><ellipse cx="18" cy="28" rx="8" ry="4" fill="#fff" opacity=".7"/><ellipse cx="14" cy="30" rx="6" ry="3" fill="#fff" opacity=".6"/><ellipse cx="46" cy="24" rx="6" ry="3" fill="#fff" opacity=".5"/><path d="m18 42 14-4 14 4v4l-14-3-14 3Z" fill="#4a7fbf"/><path d="M32 38v5" stroke="#3a6aaa" stroke-width=".5"/><path d="m18 42 14-4 14 4v2l-14-3-14 3Z" fill="#fff" opacity=".9"/><path stroke="#b0c8e0" stroke-width=".5" d="m24 40.5 6-1M24 41.5l5-1M34 39.5l8 1.5M34 40.5l7 1.5"/><path d="M38 18c2 4 1 10-4 18-.5 1-1 1.5-1.5 2" stroke="#4a7fbf" stroke-width=".8" fill="none"/><path d="M38 18c-2 2-3 6-4 12-.5 2-1 4-1.5 8" fill="#fff" opacity=".95"/><path d="M38 18c2 2 2 6 0 10l-4 8c-.5 1-1 1.5-1.5 2" fill="#fff" opacity=".9"/><path d="M38 18c1 1 1.5 2 1 4" stroke="#fff" stroke-width=".3" fill="none"/><path d="M38 18c-1 6-3 12-5.5 20" stroke="#6a9fd0" stroke-width=".6" fill="none"/><circle cx="42" cy="20" r="1" fill="#fff" opacity=".8"/><circle cx="44" cy="18" r=".5" fill="#fff" opacity=".6"/><circle cx="22" cy="22" r=".7" fill="#fff" opacity=".7"/><ellipse cx="24" cy="24" rx="1.5" ry=".8" fill="#f8c8d8" opacity=".7" transform="rotate(-30 24 24)"/><ellipse cx="44" cy="34" rx="1.2" ry=".6" fill="#f8c8d8" opacity=".6" transform="rotate(20 44 34)"/><ellipse cx="20" cy="36" rx="1" ry=".5" fill="#f8c8d8" opacity=".5" transform="rotate(-15 20 36)"/></svg>